<svg xmlns="http://www.w3.org/2000/svg" viewBox="0 0 100 100">
  <defs>
    <linearGradient id="grad" x1="0%" y1="0%" x2="100%" y2="100%">
      <stop offset="0%" style="stop-color:#6366f1;stop-opacity:1" />
      <stop offset="100%" style="stop-color:#a855f7;stop-opacity:1" />
    </linearGradient>
  </defs>
  
  <!-- Globe Circle -->
  <circle cx="50" cy="50" r="45" fill="url(#grad)" />
  
  <!-- Grid Lines (Simple) -->
  <path d="M50 5 Q80 50 50 95 M50 5 Q20 50 50 95" stroke="white" stroke-width="2" fill="none" opacity="0.5"/>
  <path d="M5 50 L95 50" stroke="white" stroke-width="2" opacity="0.5"/>
  <path d="M14 25 L86 25" stroke="white" stroke-width="2" opacity="0.3"/>
  <path d="M14 75 L86 75" stroke="white" stroke-width="2" opacity="0.3"/>

  <!-- Location Pin -->
  <path d="M50 35 C42 35 35 42 35 50 C35 58 50 75 50 75 C50 75 65 58 65 50 C65 42 58 35 50 35 Z" fill="white" />
  <circle cx="50" cy="50" r="5" fill="#6366f1" />
</svg>
